<?xml version="1.0" encoding="UTF-8"?>
<svg version="1.1" xmlns="http://www.w3.org/2000/svg" width="64" height="64">
<path d="M0 0 C8.94612925 4.76638034 15.90700941 11.98775002 19.26171875 21.73046875 C20.98213747 32.14963381 20.03202574 41.60628951 13.87890625 50.2734375 C8.8302845 56.4003078 2.60489521 61.40713515 -5.390625 62.8359375 C-7.68007341 62.95454748 -9.97313935 63.01111231 -12.265625 63.0234375 C-13.45929687 63.03761719 -14.65296875 63.05179687 -15.8828125 63.06640625 C-23.68111162 62.55404584 -30.53644793 58.78527944 -35.97265625 53.21484375 C-37.15138286 51.78683961 -38.27439163 50.3133052 -39.390625 48.8359375 C-39.9475 48.3821875 -40.504375 47.9284375 -41.078125 47.4609375 C-45.95988261 41.41685664 -45.04909461 31.06284471 -44.390625 23.8359375 C-43.48265268 20.2187721 -42.16264424 17.10916905 -40.390625 13.8359375 C-40.07480469 13.20171875 -39.75898437 12.5675 -39.43359375 11.9140625 C-31.94423791 -0.76454738 -13.22070621 -4.53890605 0 0 Z " fill="#02B0FE" transform="translate(44.390625,1.1640625)"/>
<path d="M0 0 C0.33 -0.33 0.66 -0.66 1 -1 C3.67058851 -1.14115161 6.32432238 -1.04247107 9 -1 C8.0919838 0.13199353 7.17316174 1.25532363 6.25 2.375 C5.48429687 3.31472656 5.48429687 3.31472656 4.703125 4.2734375 C2.91800519 6.08312318 1.32050356 7.00117455 -1 8 C-1.99 7.34 -2.98 6.68 -4 6 C-7.06475543 5.45477197 -9.93524839 5.45157076 -13 6 C-16.02409364 8.27127334 -16.02409364 8.27127334 -18 11 C-18.33 11.33 -18.66 11.66 -19 12 C-19.51611006 18.09009877 -19.04623402 21.1207178 -15 26 C-11.51302098 27.74348951 -7.80409937 27.58082725 -4 27 C-0.42376212 25.0862694 1.69762236 22.90713292 3 19 C-1.29 19 -5.58 19 -10 19 C-6 14 -6 14 -2.328125 13.51171875 C-0.9678884 13.5447342 0.39192338 13.60406429 1.75 13.6875 C2.44738281 13.71005859 3.14476562 13.73261719 3.86328125 13.75585938 C5.57644935 13.81452952 7.28850623 13.90420744 9 14 C8.73103369 20.05174197 8.09093541 24.24566965 4 29 C-0.59235131 32.9515581 -5.01663569 34.31271939 -11 34 C-13.50058655 33.22530848 -15.63437966 32.15961781 -18 31 C-19.32 31 -20.64 31 -22 31 C-24.66666667 31 -27.33333333 31 -30 31 C-28.7625 29.9790625 -28.7625 29.9790625 -27.5 28.9375 C-23.68150746 24.50209223 -24.81793609 19.15705471 -25.21484375 13.65625 C-24.95652404 9.26011824 -23.7651454 7.37032847 -21 4 C-13.99039678 -1.29296569 -8.47439218 -1.7447278 0 0 Z " fill="#F0FAFE" transform="translate(41,16)"/>
<path d="" fill="#00B3FE" transform="translate(0,0)"/>
<path d="" fill="#00B3FE" transform="translate(0,0)"/>
<path d="" fill="#00B3FE" transform="translate(0,0)"/>
<path d="" fill="#00B3FE" transform="translate(0,0)"/>
<path d="" fill="#00B3FE" transform="translate(0,0)"/>
<path d="" fill="#00B3FE" transform="translate(0,0)"/>
<path d="" fill="#00B3FE" transform="translate(0,0)"/>
<path d="" fill="#00B3FE" transform="translate(0,0)"/>
<path d="" fill="#00B3FE" transform="translate(0,0)"/>
<path d="" fill="#00B4FF" transform="translate(0,0)"/>
<path d="" fill="#00B3FE" transform="translate(0,0)"/>
<path d="" fill="#00B1FD" transform="translate(0,0)"/>
<path d="" fill="#00B3FE" transform="translate(0,0)"/>
<path d="" fill="#00B3FE" transform="translate(0,0)"/>
<path d="" fill="#00B3FE" transform="translate(0,0)"/>
</svg>
