<svg width="84" height="84" viewBox="0 0 84 84" fill="none" xmlns="http://www.w3.org/2000/svg">
<circle cx="42" cy="42" r="42" fill="url(#paint0_linear_53_311)"/>
<path d="M49.0024 51.7424H34.6274" stroke="#00AC4F" stroke-width="4" stroke-miterlimit="10" stroke-linecap="round" stroke-linejoin="round"/>
<path d="M41.8149 44.8279V58.9945" stroke="#00AC4F" stroke-width="4" stroke-miterlimit="10" stroke-linecap="round" stroke-linejoin="round"/>
<path d="M44.3975 15.1348L44.3113 15.3331L35.9738 34.4015H27.78C25.825 34.4015 23.9563 34.7981 22.26 35.5065L27.2913 23.6631L27.4063 23.3798L27.6075 22.9265C27.665 22.7565 27.7225 22.5865 27.8088 22.4448C31.575 13.8598 35.83 11.9048 44.3975 15.1348Z" stroke="#00AC4F" stroke-width="4" stroke-linecap="round" stroke-linejoin="round"/>
<path d="M59.8936 34.9681C58.5999 34.5714 57.2199 34.4014 55.8399 34.4014H35.9736L44.3111 15.3331L44.3974 15.1348C44.8286 15.2764 45.2311 15.4748 45.6624 15.6448L52.0161 18.2798C55.5524 19.7248 58.0249 21.2264 59.5199 23.0398C59.8074 23.3798 60.0374 23.6914 60.2386 24.0598C60.4974 24.4564 60.6986 24.8531 60.8136 25.2781C60.9286 25.5331 61.0149 25.7881 61.0724 26.0148C61.8486 28.3948 61.3886 31.3131 59.8936 34.9681Z" stroke="#00AC4F" stroke-width="4" stroke-linecap="round" stroke-linejoin="round"/>
<path d="M69.8749 48.2288V53.7538C69.8749 54.3204 69.8462 54.8871 69.8174 55.4538C69.2712 65.3421 63.6649 70.3288 53.0274 70.3288H30.6024C29.9124 70.3288 29.2224 70.2721 28.5612 70.1871C19.4187 69.5921 14.5312 64.7754 13.9274 55.7654C13.8412 55.1138 13.7837 54.4338 13.7837 53.7538V48.2288C13.7837 42.5338 17.2912 37.6321 22.2937 35.5071C24.0187 34.7988 25.8587 34.4021 27.8137 34.4021H55.8737C57.2824 34.4021 58.6624 34.6004 59.9274 34.9688C65.6487 36.6971 69.8749 41.9671 69.8749 48.2288Z" stroke="#00AC4F" stroke-width="4" stroke-linecap="round" stroke-linejoin="round"/>
<path d="M27.2913 23.6631L22.26 35.5064C17.2575 37.6314 13.75 42.5331 13.75 48.2281V39.9264C13.75 31.8798 19.5575 25.1648 27.2913 23.6631Z" stroke="#00AC4F" stroke-width="4" stroke-linecap="round" stroke-linejoin="round"/>
<path d="M69.866 39.9249V48.2266C69.866 41.9933 65.6685 36.6949 59.9185 34.9949C61.4135 31.3116 61.8447 28.4216 61.126 26.0133C61.0685 25.7583 60.9822 25.5033 60.8672 25.2766C66.2147 27.9966 69.866 33.5783 69.866 39.9249Z" stroke="#00AC4F" stroke-width="4" stroke-linecap="round" stroke-linejoin="round"/>
<defs>
<linearGradient id="paint0_linear_53_311" x1="74.55" y1="2.14197e-06" x2="42" y2="84" gradientUnits="userSpaceOnUse">
<stop stop-color="#D3FFE7"/>
<stop offset="1" stop-color="#EFFFF6"/>
</linearGradient>
</defs>
</svg>
