<svg width="84" height="84" viewBox="0 0 84 84" fill="none" xmlns="http://www.w3.org/2000/svg">
<circle cx="42" cy="42" r="42" fill="url(#paint0_linear_53_236)"/>
<path d="M38.625 46.0624C38.625 47.7599 39.9375 49.1249 41.5475 49.1249H44.8375C46.2375 49.1249 47.375 47.9349 47.375 46.4474C47.375 44.8549 46.675 44.2774 45.6425 43.9099L40.375 42.0724C39.3425 41.7049 38.6425 41.1449 38.6425 39.5349C38.6425 38.0649 39.78 36.8574 41.18 36.8574H44.47C46.08 36.8574 47.3925 38.2224 47.3925 39.9199" stroke="#00AC4F" stroke-width="1.5" stroke-linecap="round" stroke-linejoin="round"/>
<path d="M43 35.125V50.875" stroke="#00AC4F" stroke-width="1.5" stroke-linecap="round" stroke-linejoin="round"/>
<path d="M60.5 43C60.5 52.66 52.66 60.5 43 60.5C33.34 60.5 25.5 52.66 25.5 43C25.5 33.34 33.34 25.5 43 25.5" stroke="#00AC4F" stroke-width="3.5" stroke-linecap="round" stroke-linejoin="round"/>
<path d="M60.5 32.5V25.5H53.5" stroke="#00AC4F" stroke-width="2.63" stroke-linecap="round" stroke-linejoin="round"/>
<path d="M51.75 34.25L60.5 25.5" stroke="#00AC4F" stroke-width="2.63" stroke-linecap="round" stroke-linejoin="round"/>
<defs>
<linearGradient id="paint0_linear_53_236" x1="74.55" y1="2.14197e-06" x2="42" y2="84" gradientUnits="userSpaceOnUse">
<stop stop-color="#D3FFE7"/>
<stop offset="1" stop-color="#EFFFF6"/>
</linearGradient>
</defs>
</svg>
